<svg
        version="1.1"
        id="Layer_1"
        xmlns="http://www.w3.org/2000/svg"
        xmlns:xlink="http://www.w3.org/1999/xlink"
        x="0px"
        y="0px"
        viewBox="65 25 440 90"
        style="enable-background:new 0 25 440 90;"
        xml:space="preserve"
      >
        <style type="text/css">
          .st0 {
            fill: #f1f1f2;
          }
          .st1 {
            fill: #ffffff;
          }
        </style>
        <g>
          <g>
            <path
              class="st0"
              d="M103.5,87.2H69.1v-58h34.4v12.6H84.7v9.1h17.4v12.6H84.7v10.9h18.8V87.2z"
            />
            <path
              class="st0"
              d="M147.4,73.4c0,4.8-1.6,8.4-4.9,10.9c-3.3,2.5-8,3.7-14.1,3.7c-3.3,0-6.2-0.2-8.7-0.5c-2.5-0.4-5-1-7.5-2V73.1
                    c2.4,1.1,5,1.9,7.9,2.6c2.9,0.7,5.4,1,7.7,1c3.4,0,5-0.8,5-2.3c0-0.8-0.5-1.5-1.4-2.1c-0.9-0.6-3.7-1.8-8.2-3.6
                    c-4.1-1.7-7-3.6-8.6-5.8c-1.6-2.2-2.5-4.9-2.5-8.2c0-4.2,1.6-7.4,4.8-9.8c3.2-2.3,7.8-3.5,13.7-3.5c3,0,5.7,0.3,8.3,1
                    c2.6,0.6,5.3,1.6,8.1,2.8l-4.2,10c-2.1-0.9-4.2-1.7-6.5-2.4c-2.3-0.6-4.2-1-5.6-1c-2.5,0-3.8,0.6-3.8,1.9c0,0.8,0.4,1.4,1.3,2
                    c0.9,0.5,3.4,1.6,7.7,3.3c3.1,1.3,5.5,2.6,7,3.8c1.5,1.2,2.7,2.7,3.4,4.4C147,69,147.4,71,147.4,73.4z"
            />
            <path
              class="st0"
              d="M183,88c-2.3,0-4.3-0.4-6.1-1.1c-1.8-0.8-3.6-2.1-5.4-4.1h-0.7c0.5,3.1,0.7,5.1,0.7,5.9v18H156V42.3h12.6
                    l2.2,5.7h0.7c2.9-4.3,6.9-6.5,11.9-6.5c5,0,8.9,2.1,11.7,6.2c2.8,4.1,4.2,9.8,4.2,17c0,7.2-1.5,12.9-4.4,17.1
                    C192,85.9,188,88,183,88z M177.8,53.7c-2.3,0-3.9,0.8-4.8,2.4c-0.9,1.6-1.4,4-1.5,7.2v1.2c0,3.9,0.5,6.6,1.5,8.4
                    c1,1.7,2.7,2.6,4.9,2.6c2,0,3.4-0.9,4.3-2.6c0.9-1.7,1.3-4.5,1.3-8.5c0-3.9-0.4-6.6-1.3-8.3C181.3,54.5,179.8,53.7,177.8,53.7z"
            />
            <path
              class="st0"
              d="M235.3,41.5c1.3,0,2.6,0.1,3.8,0.3L240,42l-1.4,14.6c-1.3-0.3-3-0.5-5.3-0.5c-3.4,0-5.8,0.8-7.4,2.3
                    c-1.5,1.5-2.3,3.8-2.3,6.7v22.1h-15.5V42.3h11.5l2.4,7.2h0.8c1.3-2.4,3.1-4.3,5.4-5.8C230.6,42.2,233,41.5,235.3,41.5z"
            />
            <path
              class="st0"
              d="M268,88c-7.5,0-13.3-2-17.4-6c-4.1-4-6.2-9.6-6.2-17c0-7.6,1.9-13.4,5.7-17.5c3.8-4.1,9.3-6.1,16.4-6.1
                    c6.8,0,12,1.8,15.7,5.3c3.7,3.5,5.5,8.6,5.5,15.2v6.9H260c0.1,2.5,1,4.5,2.8,5.9c1.7,1.4,4.1,2.1,7.1,2.1c2.7,0,5.2-0.3,7.5-0.8
                    c2.3-0.5,4.8-1.4,7.4-2.6v11.1c-2.4,1.2-4.9,2.1-7.5,2.6C274.7,87.8,271.6,88,268,88z M267.1,52c-1.8,0-3.4,0.6-4.6,1.7
                    c-1.2,1.2-1.9,3-2.2,5.4h13.3c-0.1-2.2-0.7-3.9-1.8-5.2C270.6,52.7,269.1,52,267.1,52z"
            />
            <path
              class="st0"
              d="M331.2,73.4c0,4.8-1.6,8.4-4.9,10.9c-3.3,2.5-8,3.7-14.1,3.7c-3.3,0-6.2-0.2-8.7-0.5c-2.5-0.4-5-1-7.5-2V73.1
                    c2.4,1.1,5,1.9,7.9,2.6c2.9,0.7,5.4,1,7.7,1c3.4,0,5-0.8,5-2.3c0-0.8-0.5-1.5-1.4-2.1c-0.9-0.6-3.7-1.8-8.2-3.6
                    c-4.1-1.7-7-3.6-8.6-5.8s-2.5-4.9-2.5-8.2c0-4.2,1.6-7.4,4.8-9.8c3.2-2.3,7.8-3.5,13.7-3.5c3,0,5.7,0.3,8.3,1
                    c2.6,0.6,5.3,1.6,8.1,2.8l-4.2,10c-2.1-0.9-4.2-1.7-6.5-2.4c-2.3-0.6-4.2-1-5.6-1c-2.5,0-3.8,0.6-3.8,1.9c0,0.8,0.4,1.4,1.3,2
                    c0.9,0.5,3.4,1.6,7.7,3.3c3.1,1.3,5.5,2.6,7,3.8c1.5,1.2,2.7,2.7,3.4,4.4C330.8,69,331.2,71,331.2,73.4z"
            />
            <path
              class="st0"
              d="M374.5,73.4c0,4.8-1.6,8.4-4.9,10.9c-3.3,2.5-8,3.7-14.1,3.7c-3.3,0-6.2-0.2-8.7-0.5c-2.5-0.4-5-1-7.5-2V73.1
                    c2.4,1.1,5,1.9,7.9,2.6c2.9,0.7,5.4,1,7.7,1c3.4,0,5-0.8,5-2.3c0-0.8-0.5-1.5-1.4-2.1c-0.9-0.6-3.7-1.8-8.2-3.6
                    c-4.1-1.7-7-3.6-8.6-5.8s-2.5-4.9-2.5-8.2c0-4.2,1.6-7.4,4.8-9.8c3.2-2.3,7.8-3.5,13.7-3.5c3,0,5.7,0.3,8.3,1
                    c2.6,0.6,5.3,1.6,8.1,2.8l-4.2,10c-2.1-0.9-4.2-1.7-6.5-2.4c-2.3-0.6-4.2-1-5.6-1c-2.5,0-3.8,0.6-3.8,1.9c0,0.8,0.4,1.4,1.3,2
                    c0.9,0.5,3.4,1.6,7.7,3.3c3.1,1.3,5.5,2.6,7,3.8c1.5,1.2,2.7,2.7,3.4,4.4C374.1,69,374.5,71,374.5,73.4z"
            />
            <g>
              <path
                class="st0"
                d="M429.4,39.6c-2-2-5.3-2-7.3,0l-5.6,5.6c-3.6-2.2-7.8-3.6-12.3-3.6C391.4,41.6,381,52,381,64.8
                      S391.4,88,404.2,88s23.2-10.4,23.2-23.2c0-4.5-1.3-8.8-3.6-12.3l5.6-5.6C431.5,44.9,431.5,41.6,429.4,39.6z M404.2,79.7
                      c-8.2,0-14.9-6.7-14.9-14.9c0-8.2,6.7-14.9,14.9-14.9c8.2,0,14.9,6.7,14.9,14.9C419.1,73,412.4,79.7,404.2,79.7z"
              />
              <path
                class="st1"
                d="M395.9,64.8c0-4.2,2.6-7.9,6.3-9.4c-4.9,0.3-8.8,4.4-8.8,9.4s3.9,9.1,8.8,9.4
                      C398.5,72.7,395.9,69,395.9,64.8z"
              />
            </g>
          </g>
        </g>
      </svg>
